<svg fill="none" height="512" viewBox="0 0 24 24" width="512" xmlns="http://www.w3.org/2000/svg"><path d="m11 12.25c-3.72792 0-6.75 3.0221-6.75 6.75v1c0 1.5188 1.23122 2.75 2.75 2.75h10c1.5188 0 2.75-1.2312 2.75-2.75v-1c0-3.7279-3.0221-6.75-6.75-6.75z" fill="#486472"/><path d="m18 6v3.5" stroke="#000" stroke-linecap="round" stroke-linejoin="round" stroke-width="1.5"/><path d="m9.5 3.25c-1.51878 0-2.75 1.23122-2.75 2.75v3.5c0 .41421-.33579.75-.75.75s-.75-.33579-.75-.75v-3.5c0-2.34721 1.90279-4.25 4.25-4.25h5c2.3472 0 4.25 1.90279 4.25 4.25h-1.5c0-1.51878-1.2312-2.75-2.75-2.75z" fill="#607d8b"/><path d="m7.25 9c0-2.62335 2.12665-4.75 4.75-4.75 2.6234 0 4.75 2.12665 4.75 4.75 0 2.6234-2.1266 4.75-4.75 4.75-2.62335 0-4.75-2.1266-4.75-4.75z" fill="#607d8b"/><path clip-rule="evenodd" d="m12 12.25v10.5h-5c-1.51878 0-2.75-1.2312-2.75-2.75v-1c0-3.7279 3.02208-6.75 6.75-6.75z" fill="#354d58" fill-rule="evenodd"/><path clip-rule="evenodd" d="m12 4.25v9.5c-2.62335 0-4.75-2.1266-4.75-4.75 0-2.62335 2.12665-4.75 4.75-4.75zm0-2.5v1.5h-2.5c-1.51878 0-2.75 1.23122-2.75 2.75v3.5c0 .41421-.33579.75-.75.75s-.75-.33579-.75-.75v-3.5c0-2.34721 1.90279-4.25 4.25-4.25z" fill="#486472" fill-rule="evenodd"/><path d="m4 5.75c-.41421 0-.75.33579-.75.75v4c0 .4142.33579.75.75.75h2c.41421 0 .75-.3358.75-.75v-4c0-.41421-.33579-.75-.75-.75z" fill="#1e81d0"/><path d="m18 5.25c-.4142 0-.75.33579-.75.75v4c0 .4142.3358.75.75.75h2c.4142 0 .75-.3358.75-.75v-4c0-.41421-.3358-.75-.75-.75z" fill="#2196f3"/></svg>